<?xml version="1.0" encoding="UTF-8" standalone="no"?>
<!-- Generator: Adobe Illustrator 15.0.0, SVG Export Plug-In . SVG Version: 6.00 Build 0)  -->

<svg
   xmlns:dc="http://purl.org/dc/elements/1.1/"
   xmlns:cc="http://creativecommons.org/ns#"
   xmlns:rdf="http://www.w3.org/1999/02/22-rdf-syntax-ns#"
   xmlns:svg="http://www.w3.org/2000/svg"
   xmlns="http://www.w3.org/2000/svg"
   xmlns:sodipodi="http://sodipodi.sourceforge.net/DTD/sodipodi-0.dtd"
   xmlns:inkscape="http://www.inkscape.org/namespaces/inkscape"
   version="1.1"
   id="Calque_1"
   x="0px"
   y="0px"
   width="200px"
   height="200px"
   viewBox="0 0 200 200"
   enable-background="new 0 0 200 200"
   xml:space="preserve"
   inkscape:version="0.91 r13725"
   sodipodi:docname="logo-icon-bg-black.svg"><metadata
     id="metadata21"><rdf:RDF><cc:Work
         rdf:about=""><dc:format>image/svg+xml</dc:format><dc:type
           rdf:resource="http://purl.org/dc/dcmitype/StillImage" /></cc:Work></rdf:RDF></metadata><defs
     id="defs19" /><sodipodi:namedview
     pagecolor="#ffffff"
     bordercolor="#666666"
     borderopacity="1"
     objecttolerance="10"
     gridtolerance="10"
     guidetolerance="10"
     inkscape:pageopacity="0"
     inkscape:pageshadow="2"
     inkscape:window-width="1920"
     inkscape:window-height="1017"
     id="namedview17"
     showgrid="false"
     inkscape:zoom="1.18"
     inkscape:cx="-5.5084746"
     inkscape:cy="100"
     inkscape:window-x="-8"
     inkscape:window-y="-8"
     inkscape:window-maximized="1"
     inkscape:current-layer="Calque_1" /><path
     d="m 155.80516,46.894178 c -3.73383,0 -6.83219,1.122363 -9.20654,3.341797 -2.40281,2.244726 -3.61686,4.840389 -3.61686,7.707948 l 0,50.762417 c 0,6.81006 -1.20772,11.83066 -3.5884,14.92585 -2.30163,2.99086 -5.98172,4.44519 -11.2426,4.44519 -5.38418,0 -9.05162,-1.44484 -11.22047,-4.41357 -2.26369,-3.0952 -3.40819,-8.12844 -3.40819,-14.95747 l 0,-50.961597 c 0,-3.471422 -1.58079,-6.310527 -4.57798,-8.207479 -4.07528,-2.567208 -8.12527,-3.493553 -13.054193,-1.855851 -1.50491,0.502692 -2.921301,1.157141 -4.21439,1.944376 -1.37529,0.83782 -2.535593,1.887467 -3.455614,3.114163 -1.018031,1.365805 -1.536531,2.848589 -1.536531,4.413574 l 0,51.555974 c 0,6.82271 -1.147656,11.85595 -3.411352,14.95431 -2.175162,2.96873 -5.845764,4.41357 -11.217299,4.41357 -5.390505,0 -9.095885,-1.45117 -11.331126,-4.42938 -2.320605,-3.09519 -3.499876,-8.12528 -3.499876,-14.94166 l 0,-50.762417 c 0,-2.870721 -1.21405,-5.463222 -3.620017,-7.707948 -2.374351,-2.219434 -5.535938,-3.341797 -9.399396,-3.341797 -3.977276,0 -7.259003,1.112879 -9.753494,3.303858 -2.564047,2.244726 -3.863459,4.853035 -3.863459,7.745887 l 0,49.972027 c 0,6.28523 0.613348,12.23217 1.817912,17.66694 1.242504,5.55807 3.405029,10.43324 6.433828,14.49904 3.060416,4.1069 7.214741,7.34436 12.349157,9.64283 5.08067,2.2637 11.435458,3.41136 18.890479,3.41136 7.768018,0 14.274553,-1.43853 19.333092,-4.28079 4.242849,-2.38384 7.818606,-5.51381 10.657709,-9.32984 2.73794,3.81603 6.23149,6.946 10.41427,9.32668 4.9953,2.84226 11.59986,4.28078 19.63661,4.28078 7.45186,0 13.78136,-1.15081 18.80196,-3.41767 5.0617,-2.29531 9.17492,-5.53594 12.24166,-9.63652 3.03512,-4.07844 5.20081,-8.95677 6.43066,-14.49903 1.20457,-5.43477 1.81792,-11.38171 1.81792,-17.66695 l 0,-49.968857 c 0,-2.880205 -1.25831,-5.479029 -3.74332,-7.730079 -2.42494,-2.203626 -5.74777,-3.319666 -9.86415,-3.319666 z"
     id="path15"
     inkscape:connector-curvature="0"
     style="fill:#797c80;stroke:none;fill-opacity:1" /></svg>